
        <svg xmlns="http://www.w3.org/2000/svg" xmlns:xlink="http://www.w3.org/1999/xlink" version="1.1" width="3192.3076923076924" height="1086.5384615384614" viewBox="0 0 3192.3076923076924 1086.5384615384614">
			
			<g transform="scale(9.615384615384615) translate(10, 10)">
				<defs id="SvgjsDefs1015"/><g id="SvgjsG1016" featureKey="rootContainer" transform="matrix(1,0,0,1,0,0)" fill="#fff">    <path xmlns="http://www.w3.org/2000/svg" fill-rule="nonzero" d="             M0,0             H312             V93             H0,0             z             M4,4             v85             h304             v-85             z     "/></g><g id="SvgjsG1017" featureKey="nameLeftFeature-0" transform="matrix(1.2838797799339368,0,0,1.2838797799339368,17,13.64480757823936)" fill="#fff"><path d="M9.36 40 l-9.36 0 l0 -28.04 l9.36 0 l0 21.8 l-3.12 0 l0 -18.68 l-3.12 0 l0 21.8 l6.24 0 l0 3.12 z M20.380000000000003 11.96 l30.72 0 l-12.88 18.68 l12.76 0 l0 9.36 l-30.6 0 l15.04 -21.84 l3.84 0 l-12.92 18.72 l21.52 0 l0 -3.08 l-15.6 -0.04 l12.88 -18.68 l-21.64 0 l0 3.12 l8.08 0 l-2.16 3.12 l-9.04 0 l0 -9.36 z"/></g><g id="SvgjsG1018" featureKey="inlineSymbolFeature-0" transform="matrix(1.4726644558549118,0,0,1.4726644558549118,95.63667772072544,0.7487824352474082)" fill="#fff"><g xmlns="http://www.w3.org/2000/svg"><path d="M58,31h-6c-0.266,0-0.52,0.105-0.707,0.293l-4.7,4.7L40.978,9.791c-0.1-0.465-0.507-0.822-0.989-0.791   c-0.476,0.005-0.882,0.346-0.971,0.813l-7.149,37.536L26.97,27.757c-0.098-0.392-0.423-0.687-0.823-0.747   c-0.399-0.062-0.797,0.127-1.004,0.475l-5.43,9.05L12.6,31.2C12.427,31.07,12.216,31,12,31H6c-0.552,0-1,0.448-1,1s0.448,1,1,1   h5.667l7.733,5.8c0.228,0.171,0.514,0.237,0.792,0.182c0.278-0.055,0.52-0.225,0.665-0.467l4.758-7.93l5.415,21.658   C31.142,52.688,31.542,53,32,53c0.01,0,0.02,0,0.029,0c0.469-0.014,0.866-0.352,0.954-0.812l7.075-37.146l4.965,23.168   c0.076,0.357,0.343,0.646,0.694,0.749c0.352,0.102,0.731,0.008,0.99-0.252L52.414,33H58c0.553,0,1-0.448,1-1S58.553,31,58,31z"/></g></g><g id="SvgjsG1019" featureKey="nameRightFeature-0" transform="matrix(1.2838797799339368,0,0,1.2838797799339368,170.3637832425461,13.64480757823936)" fill="#fff"><path d="M25.42 11.96 l30.72 0 l-12.88 18.68 l12.76 0 l0 9.36 l-30.6 0 l15.04 -21.84 l3.84 0 l-12.92 18.72 l21.52 0 l0 -3.08 l-15.6 -0.04 l12.88 -18.68 l-21.64 0 l0 3.12 l8.08 0 l-2.16 3.12 l-9.04 0 l0 -9.36 z M86.56 11.96 l11.32 0 l-10.68 15.36 l0 12.68 l-9.36 0 l0 -12.6 l-10.68 -15.44 l11.36 0 l2.24 3.28 l-1.84 2.76 l-2 -2.92 l-3.8 0 l7.84 11.32 l0.04 0.04 l0 10.44 l3.2 0 l0 -10.48 l7.72 -11.32 l-3.8 0 l-5.6 8.12 l-1.8 -2.56 z"/></g>
			</g>
		</svg>
	